<?xml version="1.0" standalone="no"?>
<!DOCTYPE svg PUBLIC "-//W3C//DTD SVG 20010904//EN"
 "http://www.w3.org/TR/2001/REC-SVG-20010904/DTD/svg10.dtd">
<svg version="1.0" xmlns="http://www.w3.org/2000/svg"
 width="192.000000pt" height="192.000000pt" viewBox="0 0 192.000000 192.000000"
 preserveAspectRatio="xMidYMid meet">
<metadata>
Created by potrace 1.14, written by Peter Selinger 2001-2017
</metadata>
<g transform="translate(0.000000,192.000000) scale(0.100000,-0.100000)"
fill="#000000" stroke="none">
<path d="M0 960 l0 -960 960 0 960 0 0 960 0 960 -960 0 -960 0 0 -960z m1180
859 c145 -37 316 -136 416 -241 264 -277 324 -679 153 -1019 -163 -325 -526
-522 -886 -479 -175 21 -320 81 -457 189 -451 359 -439 1058 24 1401 216 159
492 214 750 149z"/>
<path d="M840 1754 c-327 -63 -564 -274 -652 -580 -33 -114 -33 -314 0 -428
78 -272 286 -480 558 -558 114 -33 314 -33 428 0 272 78 480 286 558 558 33
114 33 314 0 428 -78 270 -286 480 -552 556 -74 21 -279 36 -340 24z m-35
-794 l0 -405 -82 -3 -83 -3 0 280 0 280 -92 3 -93 3 -3 52 -3 51 43 7 c106 16
158 45 189 106 20 40 20 40 72 37 l52 -3 0 -405z m519 376 c98 -57 137 -143
144 -318 9 -233 -44 -377 -163 -441 -31 -17 -57 -22 -120 -22 -70 0 -86 4
-128 28 -54 32 -92 84 -102 140 l-7 37 74 0 c72 0 74 -1 85 -29 23 -62 136
-61 177 2 19 28 42 144 31 155 -3 4 -12 0 -18 -9 -36 -49 -148 -64 -222 -30
-110 50 -163 203 -120 349 20 66 88 136 153 157 68 22 160 14 216 -19z"/>
<path d="M1139 1227 c-53 -41 -71 -148 -35 -215 33 -64 119 -76 171 -24 32 32
38 58 33 134 -4 53 -9 65 -36 89 -25 23 -42 29 -75 29 -23 0 -49 -6 -58 -13z"/>
</g>
</svg>
